<svg id="visual" viewBox="0 0 960 540" width="960" height="540" xmlns="http://www.w3.org/2000/svg" xmlns:xlink="http://www.w3.org/1999/xlink" version="1.1"><rect x="0" y="0" width="960" height="540" fill="#941707"></rect><path d="M0 357L8.8 346.8C17.7 336.7 35.3 316.3 53.2 318.5C71 320.7 89 345.3 106.8 366.5C124.7 387.7 142.3 405.3 160 403.5C177.7 401.7 195.3 380.3 213.2 374.7C231 369 249 379 266.8 381C284.7 383 302.3 377 320 378.3C337.7 379.7 355.3 388.3 373.2 368.2C391 348 409 299 426.8 293.2C444.7 287.3 462.3 324.7 480 349.2C497.7 373.7 515.3 385.3 533.2 377C551 368.7 569 340.3 586.8 353.8C604.7 367.3 622.3 422.7 640 412.7C657.7 402.7 675.3 327.3 693.2 316.5C711 305.7 729 359.3 746.8 393.2C764.7 427 782.3 441 800 439.7C817.7 438.3 835.3 421.7 853.2 407.3C871 393 889 381 906.8 392.3C924.7 403.7 942.3 438.3 951.2 455.7L960 473L960 541L951.2 541C942.3 541 924.7 541 906.8 541C889 541 871 541 853.2 541C835.3 541 817.7 541 800 541C782.3 541 764.7 541 746.8 541C729 541 711 541 693.2 541C675.3 541 657.7 541 640 541C622.3 541 604.7 541 586.8 541C569 541 551 541 533.2 541C515.3 541 497.7 541 480 541C462.3 541 444.7 541 426.8 541C409 541 391 541 373.2 541C355.3 541 337.7 541 320 541C302.3 541 284.7 541 266.8 541C249 541 231 541 213.2 541C195.3 541 177.7 541 160 541C142.3 541 124.7 541 106.8 541C89 541 71 541 53.2 541C35.3 541 17.7 541 8.8 541L0 541Z" fill="#d81e06"></path><path d="M0 440L8.8 440.3C17.7 440.7 35.3 441.3 53.2 420C71 398.7 89 355.3 106.8 354.2C124.7 353 142.3 394 160 393.2C177.7 392.3 195.3 349.7 213.2 340C231 330.3 249 353.7 266.8 375.2C284.7 396.7 302.3 416.3 320 404C337.7 391.7 355.3 347.3 373.2 344.3C391 341.3 409 379.7 426.8 403.7C444.7 427.7 462.3 437.3 480 420.5C497.7 403.7 515.3 360.3 533.2 345.7C551 331 569 345 586.8 367.5C604.7 390 622.3 421 640 423C657.7 425 675.3 398 693.2 400C711 402 729 433 746.8 444.2C764.7 455.3 782.3 446.7 800 427.7C817.7 408.7 835.3 379.3 853.2 355.5C871 331.7 889 313.3 906.8 304.8C924.7 296.3 942.3 297.7 951.2 298.3L960 299L960 541L951.2 541C942.3 541 924.7 541 906.8 541C889 541 871 541 853.2 541C835.3 541 817.7 541 800 541C782.3 541 764.7 541 746.8 541C729 541 711 541 693.2 541C675.3 541 657.7 541 640 541C622.3 541 604.7 541 586.8 541C569 541 551 541 533.2 541C515.3 541 497.7 541 480 541C462.3 541 444.7 541 426.8 541C409 541 391 541 373.2 541C355.3 541 337.7 541 320 541C302.3 541 284.7 541 266.8 541C249 541 231 541 213.2 541C195.3 541 177.7 541 160 541C142.3 541 124.7 541 106.8 541C89 541 71 541 53.2 541C35.3 541 17.7 541 8.8 541L0 541Z" fill="#ba170e"></path><path d="M0 368L8.8 389.8C17.7 411.7 35.3 455.3 53.2 449.5C71 443.7 89 388.3 106.8 377.8C124.7 367.3 142.3 401.7 160 417.8C177.7 434 195.3 432 213.2 430.7C231 429.3 249 428.7 266.8 416.5C284.7 404.3 302.3 380.7 320 371.7C337.7 362.7 355.3 368.3 373.2 379C391 389.7 409 405.3 426.8 426C444.7 446.7 462.3 472.3 480 484.7C497.7 497 515.3 496 533.2 474C551 452 569 409 586.8 407.8C604.7 406.7 622.3 447.3 640 446.5C657.7 445.7 675.3 403.3 693.2 386.3C711 369.3 729 377.7 746.8 383.2C764.7 388.7 782.3 391.3 800 385.2C817.7 379 835.3 364 853.2 379.8C871 395.7 889 442.3 906.8 450.8C924.7 459.3 942.3 429.7 951.2 414.8L960 400L960 541L951.2 541C942.3 541 924.7 541 906.8 541C889 541 871 541 853.2 541C835.3 541 817.7 541 800 541C782.3 541 764.7 541 746.8 541C729 541 711 541 693.2 541C675.3 541 657.7 541 640 541C622.3 541 604.7 541 586.8 541C569 541 551 541 533.2 541C515.3 541 497.7 541 480 541C462.3 541 444.7 541 426.8 541C409 541 391 541 373.2 541C355.3 541 337.7 541 320 541C302.3 541 284.7 541 266.8 541C249 541 231 541 213.2 541C195.3 541 177.7 541 160 541C142.3 541 124.7 541 106.8 541C89 541 71 541 53.2 541C35.3 541 17.7 541 8.8 541L0 541Z" fill="#9c1211"></path><path d="M0 461L8.8 467.2C17.7 473.3 35.3 485.7 53.2 487C71 488.3 89 478.7 106.8 469.3C124.7 460 142.3 451 160 436.5C177.7 422 195.3 402 213.2 395.3C231 388.7 249 395.3 266.8 400C284.7 404.7 302.3 407.3 320 412C337.7 416.7 355.3 423.3 373.2 422.8C391 422.3 409 414.7 426.8 427.2C444.7 439.7 462.3 472.3 480 464.7C497.7 457 515.3 409 533.2 387.7C551 366.3 569 371.7 586.8 388.3C604.7 405 622.3 433 640 432.8C657.7 432.7 675.3 404.3 693.2 392.3C711 380.3 729 384.7 746.8 400C764.7 415.3 782.3 441.7 800 448C817.7 454.3 835.3 440.7 853.2 445.7C871 450.7 889 474.3 906.8 464.5C924.7 454.7 942.3 411.3 951.2 389.7L960 368L960 541L951.2 541C942.3 541 924.7 541 906.8 541C889 541 871 541 853.2 541C835.3 541 817.7 541 800 541C782.3 541 764.7 541 746.8 541C729 541 711 541 693.2 541C675.3 541 657.7 541 640 541C622.3 541 604.7 541 586.8 541C569 541 551 541 533.2 541C515.3 541 497.7 541 480 541C462.3 541 444.7 541 426.8 541C409 541 391 541 373.2 541C355.3 541 337.7 541 320 541C302.3 541 284.7 541 266.8 541C249 541 231 541 213.2 541C195.3 541 177.7 541 160 541C142.3 541 124.7 541 106.8 541C89 541 71 541 53.2 541C35.3 541 17.7 541 8.8 541L0 541Z" fill="#7e0f11"></path><path d="M0 506L8.8 503.2C17.7 500.3 35.3 494.7 53.2 484.3C71 474 89 459 106.8 443.5C124.7 428 142.3 412 160 414.5C177.7 417 195.3 438 213.2 448C231 458 249 457 266.8 459.8C284.7 462.7 302.3 469.3 320 464.2C337.7 459 355.3 442 373.2 445.2C391 448.3 409 471.7 426.8 484C444.7 496.3 462.3 497.7 480 483.2C497.7 468.7 515.3 438.3 533.2 430.8C551 423.3 569 438.7 586.8 447.7C604.7 456.7 622.3 459.3 640 460C657.7 460.7 675.3 459.3 693.2 468C711 476.7 729 495.3 746.8 501C764.7 506.7 782.3 499.3 800 499.5C817.7 499.7 835.3 507.3 853.2 508.3C871 509.3 889 503.7 906.8 500.7C924.7 497.7 942.3 497.3 951.2 497.2L960 497L960 541L951.2 541C942.3 541 924.7 541 906.8 541C889 541 871 541 853.2 541C835.3 541 817.7 541 800 541C782.3 541 764.7 541 746.8 541C729 541 711 541 693.2 541C675.3 541 657.7 541 640 541C622.3 541 604.7 541 586.8 541C569 541 551 541 533.2 541C515.3 541 497.7 541 480 541C462.3 541 444.7 541 426.8 541C409 541 391 541 373.2 541C355.3 541 337.7 541 320 541C302.3 541 284.7 541 266.8 541C249 541 231 541 213.2 541C195.3 541 177.7 541 160 541C142.3 541 124.7 541 106.8 541C89 541 71 541 53.2 541C35.3 541 17.7 541 8.8 541L0 541Z" fill="#610d0f"></path><path d="M0 488L8.8 492.5C17.7 497 35.3 506 53.2 503.7C71 501.3 89 487.7 106.8 482.5C124.7 477.3 142.3 480.7 160 483.7C177.7 486.7 195.3 489.3 213.2 482.5C231 475.7 249 459.3 266.8 449.3C284.7 439.3 302.3 435.7 320 440.7C337.7 445.7 355.3 459.3 373.2 470.7C391 482 409 491 426.8 498.7C444.7 506.3 462.3 512.7 480 509C497.7 505.3 515.3 491.7 533.2 490.3C551 489 569 500 586.8 495.8C604.7 491.7 622.3 472.3 640 470.3C657.7 468.3 675.3 483.7 693.2 495.2C711 506.7 729 514.3 746.8 505.3C764.7 496.3 782.3 470.7 800 461.7C817.7 452.7 835.3 460.3 853.2 461.8C871 463.3 889 458.7 906.8 453.7C924.7 448.7 942.3 443.3 951.2 440.7L960 438L960 541L951.2 541C942.3 541 924.7 541 906.8 541C889 541 871 541 853.2 541C835.3 541 817.7 541 800 541C782.3 541 764.7 541 746.8 541C729 541 711 541 693.2 541C675.3 541 657.7 541 640 541C622.3 541 604.7 541 586.8 541C569 541 551 541 533.2 541C515.3 541 497.7 541 480 541C462.3 541 444.7 541 426.8 541C409 541 391 541 373.2 541C355.3 541 337.7 541 320 541C302.3 541 284.7 541 266.8 541C249 541 231 541 213.2 541C195.3 541 177.7 541 160 541C142.3 541 124.7 541 106.8 541C89 541 71 541 53.2 541C35.3 541 17.7 541 8.8 541L0 541Z" fill="#460b09"></path><path d="M0 489L8.8 487.2C17.7 485.3 35.3 481.7 53.2 481.3C71 481 89 484 106.8 487.7C124.7 491.3 142.3 495.7 160 495.7C177.7 495.7 195.3 491.3 213.2 493.7C231 496 249 505 266.8 502.8C284.7 500.7 302.3 487.3 320 481.5C337.7 475.7 355.3 477.3 373.2 481C391 484.7 409 490.3 426.8 494C444.7 497.7 462.3 499.3 480 502.5C497.7 505.7 515.3 510.3 533.2 504.5C551 498.7 569 482.3 586.8 475.7C604.7 469 622.3 472 640 479.7C657.7 487.3 675.3 499.7 693.2 500.7C711 501.7 729 491.3 746.8 488.8C764.7 486.3 782.3 491.7 800 493.5C817.7 495.3 835.3 493.7 853.2 498.8C871 504 889 516 906.8 513.8C924.7 511.7 942.3 495.3 951.2 487.2L960 479L960 541L951.2 541C942.3 541 924.7 541 906.8 541C889 541 871 541 853.2 541C835.3 541 817.7 541 800 541C782.3 541 764.7 541 746.8 541C729 541 711 541 693.2 541C675.3 541 657.7 541 640 541C622.3 541 604.7 541 586.8 541C569 541 551 541 533.2 541C515.3 541 497.7 541 480 541C462.3 541 444.7 541 426.8 541C409 541 391 541 373.2 541C355.3 541 337.7 541 320 541C302.3 541 284.7 541 266.8 541C249 541 231 541 213.2 541C195.3 541 177.7 541 160 541C142.3 541 124.7 541 106.8 541C89 541 71 541 53.2 541C35.3 541 17.7 541 8.8 541L0 541Z" fill="#2c0700"></path></svg>