<svg id="visual" viewBox="0 0 960 540" width="960" height="540" xmlns="http://www.w3.org/2000/svg" xmlns:xlink="http://www.w3.org/1999/xlink" version="1.1"><rect x="0" y="0" width="960" height="540" fill="#2c0700"></rect><path d="M0 44L42 44L42 154L83 154L83 69L125 69L125 227L167 227L167 294L209 294L209 208L250 208L250 256L292 256L292 31L334 31L334 136L376 136L376 322L417 322L417 107L459 107L459 195L501 195L501 214L543 214L543 107L584 107L584 221L626 221L626 200L668 200L668 301L710 301L710 122L751 122L751 12L793 12L793 155L835 155L835 178L877 178L877 115L918 115L918 170L960 170L960 119L960 0L960 0L918 0L918 0L877 0L877 0L835 0L835 0L793 0L793 0L751 0L751 0L710 0L710 0L668 0L668 0L626 0L626 0L584 0L584 0L543 0L543 0L501 0L501 0L459 0L459 0L417 0L417 0L376 0L376 0L334 0L334 0L292 0L292 0L250 0L250 0L209 0L209 0L167 0L167 0L125 0L125 0L83 0L83 0L42 0L42 0L0 0Z" fill="#610d0f"></path><path d="M0 233L42 233L42 140L83 140L83 283L125 283L125 13L167 13L167 198L209 198L209 279L250 279L250 124L292 124L292 127L334 127L334 195L376 195L376 200L417 200L417 277L459 277L459 174L501 174L501 70L543 70L543 246L584 246L584 69L626 69L626 235L668 235L668 54L710 54L710 58L751 58L751 54L793 54L793 206L835 206L835 180L877 180L877 41L918 41L918 287L960 287L960 60L960 0L960 0L918 0L918 0L877 0L877 0L835 0L835 0L793 0L793 0L751 0L751 0L710 0L710 0L668 0L668 0L626 0L626 0L584 0L584 0L543 0L543 0L501 0L501 0L459 0L459 0L417 0L417 0L376 0L376 0L334 0L334 0L292 0L292 0L250 0L250 0L209 0L209 0L167 0L167 0L125 0L125 0L83 0L83 0L42 0L42 0L0 0Z" fill="#6b0e10"></path><path d="M0 126L42 126L42 45L83 45L83 50L125 50L125 158L167 158L167 205L209 205L209 257L250 257L250 36L292 36L292 116L334 116L334 218L376 218L376 213L417 213L417 183L459 183L459 263L501 263L501 18L543 18L543 39L584 39L584 108L626 108L626 11L668 11L668 267L710 267L710 232L751 232L751 20L793 20L793 151L835 151L835 271L877 271L877 114L918 114L918 116L960 116L960 33L960 0L960 0L918 0L918 0L877 0L877 0L835 0L835 0L793 0L793 0L751 0L751 0L710 0L710 0L668 0L668 0L626 0L626 0L584 0L584 0L543 0L543 0L501 0L501 0L459 0L459 0L417 0L417 0L376 0L376 0L334 0L334 0L292 0L292 0L250 0L250 0L209 0L209 0L167 0L167 0L125 0L125 0L83 0L83 0L42 0L42 0L0 0Z" fill="#760e11"></path><path d="M0 73L42 73L42 39L83 39L83 128L125 128L125 164L167 164L167 21L209 21L209 14L250 14L250 115L292 115L292 174L334 174L334 161L376 161L376 154L417 154L417 1L459 1L459 192L501 192L501 114L543 114L543 95L584 95L584 203L626 203L626 105L668 105L668 186L710 186L710 177L751 177L751 87L793 87L793 13L835 13L835 174L877 174L877 96L918 96L918 170L960 170L960 52L960 0L960 0L918 0L918 0L877 0L877 0L835 0L835 0L793 0L793 0L751 0L751 0L710 0L710 0L668 0L668 0L626 0L626 0L584 0L584 0L543 0L543 0L501 0L501 0L459 0L459 0L417 0L417 0L376 0L376 0L334 0L334 0L292 0L292 0L250 0L250 0L209 0L209 0L167 0L167 0L125 0L125 0L83 0L83 0L42 0L42 0L0 0Z" fill="#810f11"></path><path d="M0 90L42 90L42 72L83 72L83 127L125 127L125 31L167 31L167 4L209 4L209 202L250 202L250 188L292 188L292 212L334 212L334 200L376 200L376 16L417 16L417 115L459 115L459 142L501 142L501 2L543 2L543 145L584 145L584 130L626 130L626 89L668 89L668 196L710 196L710 175L751 175L751 92L793 92L793 67L835 67L835 48L877 48L877 198L918 198L918 140L960 140L960 39L960 0L960 0L918 0L918 0L877 0L877 0L835 0L835 0L793 0L793 0L751 0L751 0L710 0L710 0L668 0L668 0L626 0L626 0L584 0L584 0L543 0L543 0L501 0L501 0L459 0L459 0L417 0L417 0L376 0L376 0L334 0L334 0L292 0L292 0L250 0L250 0L209 0L209 0L167 0L167 0L125 0L125 0L83 0L83 0L42 0L42 0L0 0Z" fill="#8c1011"></path><path d="M0 39L42 39L42 172L83 172L83 120L125 120L125 98L167 98L167 25L209 25L209 118L250 118L250 62L292 62L292 55L334 55L334 179L376 179L376 35L417 35L417 149L459 149L459 69L501 69L501 173L543 173L543 153L584 153L584 196L626 196L626 147L668 147L668 1L710 1L710 67L751 67L751 162L793 162L793 80L835 80L835 23L877 23L877 50L918 50L918 89L960 89L960 22L960 0L960 0L918 0L918 0L877 0L877 0L835 0L835 0L793 0L793 0L751 0L751 0L710 0L710 0L668 0L668 0L626 0L626 0L584 0L584 0L543 0L543 0L501 0L501 0L459 0L459 0L417 0L417 0L376 0L376 0L334 0L334 0L292 0L292 0L250 0L250 0L209 0L209 0L167 0L167 0L125 0L125 0L83 0L83 0L42 0L42 0L0 0Z" fill="#971111"></path><path d="M0 125L42 125L42 10L83 10L83 96L125 96L125 161L167 161L167 49L209 49L209 118L250 118L250 163L292 163L292 0L334 0L334 103L376 103L376 123L417 123L417 55L459 55L459 104L501 104L501 33L543 33L543 103L584 103L584 78L626 78L626 162L668 162L668 131L710 131L710 46L751 46L751 61L793 61L793 0L835 0L835 163L877 163L877 154L918 154L918 92L960 92L960 36L960 0L960 0L918 0L918 0L877 0L877 0L835 0L835 0L793 0L793 0L751 0L751 0L710 0L710 0L668 0L668 0L626 0L626 0L584 0L584 0L543 0L543 0L501 0L501 0L459 0L459 0L417 0L417 0L376 0L376 0L334 0L334 0L292 0L292 0L250 0L250 0L209 0L209 0L167 0L167 0L125 0L125 0L83 0L83 0L42 0L42 0L0 0Z" fill="#a11311"></path><path d="M0 44L42 44L42 140L83 140L83 115L125 115L125 84L167 84L167 4L209 4L209 36L250 36L250 65L292 65L292 148L334 148L334 30L376 30L376 94L417 94L417 100L459 100L459 140L501 140L501 74L543 74L543 66L584 66L584 69L626 69L626 145L668 145L668 90L710 90L710 126L751 126L751 60L793 60L793 92L835 92L835 84L877 84L877 84L918 84L918 119L960 119L960 29L960 0L960 0L918 0L918 0L877 0L877 0L835 0L835 0L793 0L793 0L751 0L751 0L710 0L710 0L668 0L668 0L626 0L626 0L584 0L584 0L543 0L543 0L501 0L501 0L459 0L459 0L417 0L417 0L376 0L376 0L334 0L334 0L292 0L292 0L250 0L250 0L209 0L209 0L167 0L167 0L125 0L125 0L83 0L83 0L42 0L42 0L0 0Z" fill="#ac1410"></path><path d="M0 78L42 78L42 63L83 63L83 122L125 122L125 25L167 25L167 2L209 2L209 111L250 111L250 50L292 50L292 105L334 105L334 29L376 29L376 36L417 36L417 61L459 61L459 40L501 40L501 40L543 40L543 19L584 19L584 7L626 7L626 17L668 17L668 29L710 29L710 24L751 24L751 3L793 3L793 118L835 118L835 78L877 78L877 37L918 37L918 35L960 35L960 0L960 0L960 0L918 0L918 0L877 0L877 0L835 0L835 0L793 0L793 0L751 0L751 0L710 0L710 0L668 0L668 0L626 0L626 0L584 0L584 0L543 0L543 0L501 0L501 0L459 0L459 0L417 0L417 0L376 0L376 0L334 0L334 0L292 0L292 0L250 0L250 0L209 0L209 0L167 0L167 0L125 0L125 0L83 0L83 0L42 0L42 0L0 0Z" fill="#b7160e"></path><path d="M0 19L42 19L42 31L83 31L83 5L125 5L125 55L167 55L167 69L209 69L209 98L250 98L250 59L292 59L292 43L334 43L334 54L376 54L376 56L417 56L417 77L459 77L459 93L501 93L501 25L543 25L543 33L584 33L584 76L626 76L626 42L668 42L668 68L710 68L710 20L751 20L751 83L793 83L793 8L835 8L835 37L877 37L877 39L918 39L918 97L960 97L960 65L960 0L960 0L918 0L918 0L877 0L877 0L835 0L835 0L793 0L793 0L751 0L751 0L710 0L710 0L668 0L668 0L626 0L626 0L584 0L584 0L543 0L543 0L501 0L501 0L459 0L459 0L417 0L417 0L376 0L376 0L334 0L334 0L292 0L292 0L250 0L250 0L209 0L209 0L167 0L167 0L125 0L125 0L83 0L83 0L42 0L42 0L0 0Z" fill="#c2190d"></path><path d="M0 18L42 18L42 0L83 0L83 34L125 34L125 63L167 63L167 67L209 67L209 67L250 67L250 11L292 11L292 2L334 2L334 1L376 1L376 54L417 54L417 69L459 69L459 59L501 59L501 23L543 23L543 64L584 64L584 65L626 65L626 65L668 65L668 37L710 37L710 43L751 43L751 0L793 0L793 38L835 38L835 7L877 7L877 5L918 5L918 0L960 0L960 61L960 0L960 0L918 0L918 0L877 0L877 0L835 0L835 0L793 0L793 0L751 0L751 0L710 0L710 0L668 0L668 0L626 0L626 0L584 0L584 0L543 0L543 0L501 0L501 0L459 0L459 0L417 0L417 0L376 0L376 0L334 0L334 0L292 0L292 0L250 0L250 0L209 0L209 0L167 0L167 0L125 0L125 0L83 0L83 0L42 0L42 0L0 0Z" fill="#cd1b0a"></path><path d="M0 13L42 13L42 48L83 48L83 47L125 47L125 4L167 4L167 36L209 36L209 7L250 7L250 34L292 34L292 28L334 28L334 8L376 8L376 23L417 23L417 19L459 19L459 13L501 13L501 49L543 49L543 21L584 21L584 44L626 44L626 21L668 21L668 15L710 15L710 3L751 3L751 39L793 39L793 31L835 31L835 1L877 1L877 16L918 16L918 40L960 40L960 42L960 0L960 0L918 0L918 0L877 0L877 0L835 0L835 0L793 0L793 0L751 0L751 0L710 0L710 0L668 0L668 0L626 0L626 0L584 0L584 0L543 0L543 0L501 0L501 0L459 0L459 0L417 0L417 0L376 0L376 0L334 0L334 0L292 0L292 0L250 0L250 0L209 0L209 0L167 0L167 0L125 0L125 0L83 0L83 0L42 0L42 0L0 0Z" fill="#d81e06"></path></svg>