<svg xmlns="http://www.w3.org/2000/svg" viewBox="0 0 400 400">
<path  d="M251.32,32H236.59l-27.77-.52H118.39a8.54,8.54,0,0,0-7.67,4.78A343.39,343.39,0,0,1,74.6,82.45a442.74,442.74,0,0,1-41,38.92c-1,.85-5.26,5.26-5.26,5.26l-.08,44.1a4.44,4.44,0,0,0,7.57,3.11l57-57c6.28-6.27,11.22-2.2,11.22,6.67V271.86a61.64,61.64,0,0,0-16.31-2.17c-32.82,0-58.38,21.32-58.38,48.92s25.56,50,58.38,50,57.34-22.37,57.34-50V284.07l45.23-.7h20c17.88,0,20-.41,34.71,0,75.74,2.1,126.76-52.27,126.76-125.18S321.62,32.56,251.32,32Zm9.62,192.27a13.17,13.17,0,0,1-2.42.26l-33,.5H213.29a13,13,0,0,1-13-13V103.32a13,13,0,0,1,13-13H225.5l33,.5a12.36,12.36,0,0,1,2.42.26c27.77,5.92,47.71,37.3,47.71,66.56S288.71,218.3,260.94,224.22Z"/>
</svg>